#!OML:ASF X:\für Bonn\!DataBase\2005_08_10_Bjorn_Final\c3d\bjorn.ASF
:FULLY-SPECIFIED
:DEGREES
219
root 0.423986 18.3914 -2.42241 563.541 94.0837 567.542
lowerback 0.153797 -0.888983 -6.24723
upperback 15.2193 0.661911 -2.84026
thorax 17.0483 0.105811 0.4354
lowerneck 5.45937 -4.40673 5.66527
upperneck 2.45365 -5.38362 8.56417
head -0.05215 -2.61057 1.81116
rclavicle -3.73715e-014 -2.22639e-014
rhumerus -27.4345 -23.5389 -80.7841
rradius 37.5007
rwrist 7.85489
rhand -10.9112 19.6046
rfingers 7.12502
rthumb 15.1061 -9.8242
lclavicle -3.73715e-014 -2.22639e-014
lhumerus -1.24682 -3.9734 77.3041
lradius 56.9172
lwrist -7.37942
lhand -45.4693 -13.8786
lfingers 7.12502
lthumb -18.2352 15.2867
rfemur -34.1182 -11.1245 9.72875
rtibia 27.5609
rfoot 22.9022 10.7449
rtoes -22.3191
lfemur 8.26129 1.7673 -20.2976
ltibia 30.501
lfoot -25.3429 0.266796
ltoes -16.7597
220
root 0.53037 18.3851 -2.3874 566.31 94.0526 570.106
lowerback -0.128159 -0.927437 -6.09988
upperback 15.1575 0.596967 -2.79451
thorax 17.1517 0.084298 0.395632
lowerneck 5.31984 -4.24882 5.71118
upperneck 2.4096 -5.18477 8.28648
head -0.0547484 -2.51114 1.70811
rclavicle -2.06736e-014 6.36111e-015
rhumerus -27.4387 -23.6037 -80.7258
rradius 37.3699
rwrist 7.94898
rhand -10.873 19.4958
rfingers 7.12502
rthumb 15.1429 -9.93019
lclavicle -2.06736e-014 6.36111e-015
lhumerus -1.34654 -3.69901 77.413
lradius 56.331
lwrist -7.56044
lhand -45.3693 -13.8176
lfingers 7.12502
lthumb -18.139 15.3566
rfemur -33.9687 -10.7447 9.43738
rtibia 27.8682
rfoot 22.2982 11.2421
rtoes -20.9306
lfemur 8.64832 1.79218 -20.2973
ltibia 30.0051
lfoot -25.2145 0.0985762
ltoes -17.2805
221
root 0.637095 18.3797 -2.3522 569.106 94.0202 572.745
lowerback -0.338135 -0.948787 -5.90619
upperback 15.0998 0.549869 -2.77235
thorax 17.2105 0.0821038 0.306551
lowerneck 5.21646 -4.0966 5.80858
upperneck 2.31163 -4.98201 8.01882
head -0.0804117 -2.41275 1.60203
rclavicle 5.56597e-015 1.82882e-014
rhumerus -27.4593 -23.7213 -80.6838
rradius 37.21
rwrist 7.99597
rhand -10.8407 19.3891
rfingers 7.12502
rthumb 15.1739 -10.0345
lclavicle 5.56597e-015 1.82882e-014
lhumerus -1.46044 -3.50989 77.4719
lradius 55.7248
lwrist -7.67726
lhand -45.1686 -13.7251
lfingers 7.12502
lthumb -17.9459 15.4669
rfemur -33.7801 -10.3595 9.13879
rtibia 28.2315
rfoot 21.503 11.7202
rtoes -19.6049
lfemur 9.10213 1.80198 -20.2855
ltibia 29.4817
lfoot -25.0584 -0.132108
ltoes -17.6166
222
root 0.744518 18.3744 -2.3153 571.713 93.9835 575.17
lowerback -0.555419 -0.971152 -5.71104
upperback 15.0324 0.495435 -2.7283
thorax 17.2613 0.0738651 0.240204
lowerneck 5.08824 -3.92453 5.89437
upperneck 2.22985 -4.75795 7.74098
head -0.096299 -2.30254 1.49398
rclavicle 4.37326e-015 8.74653e-015
rhumerus -27.4935 -23.739 -80.6478
rradius 37.0829
rwrist 7.99158
rhand -10.8174 19.2313
rfingers 7.12502
rthumb 15.1964 -10.1907
lclavicle 4.37326e-015 8.74653e-015
lhumerus -1.60111 -3.31326 77.5255
lradius 55.0675
lwrist -7.87347
lhand -44.9392 -13.6134
lfingers 7.12502
lthumb -17.7252 15.5988
rfemur -33.6177 -9.99848 8.88598
rtibia 28.613
rfoot 20.5562 12.146
rtoes -18.5254
lfemur 9.52602 1.79315 -20.2483
ltibia 28.9582
lfoot -24.8973 -0.353288
ltoes -17.9464
223
root 0.85263 18.3693 -2.27687 574.789 93.9472 578.087
lowerback -0.74262 -0.985049 -5.49567
upperback 14.973 0.454265 -2.71211
thorax 17.302 0.0788713 0.133041
lowerneck 4.87215 -3.74557 5.96525
upperneck 2.21789 -4.53906 7.50759
head -0.0737098 -2.1895 1.40016
rclavicle 1.23246e-014 2.94201e-014
rhumerus -27.5517 -23.8308 -80.6063
rradius 36.9627
rwrist 8.00517
rhand -10.7974 19.1899
rfingers 7.12502
rthumb 15.2156 -10.2306
lclavicle 1.23246e-014 2.94201e-014
lhumerus -1.73566 -3.19833 77.5406
lradius 54.3516
lwrist -8.04635
lhand -44.6853 -13.5127
lfingers 7.12502
lthumb -17.4808 15.7214
rfemur -33.4426 -9.67422 8.62716
rtibia 29.011
rfoot 19.5303 12.5348
rtoes -17.6409
lfemur 9.98424 1.74845 -20.2342
ltibia 28.4152
lfoot -24.6953 -0.563297
ltoes -18.2968
224
root 0.960584 18.3642 -2.23765 577.686 93.8642 580.811
lowerback -0.907686 -1.00627 -5.22452
upperback 14.9048 0.393144 -2.69424
thorax 17.3153 0.0822431 -0.00588522
lowerneck 4.69372 -3.55326 6.14675
upperneck 2.14371 -4.28811 7.21334
head -0.0796547 -2.06353 1.27112
rclavicle 2.14687e-014 1.74931e-014
rhumerus -27.6107 -23.8956 -80.6117
rradius 36.8202
rwrist 7.95149
rhand -10.8069 19.1629
rfingers 7.12502
rthumb 15.2065 -10.2583
lclavicle 2.14687e-014 1.74931e-014
lhumerus -1.89061 -3.09009 77.5156
lradius 53.6034
lwrist -8.28056
lhand -44.2571 -13.3879
lfingers 7.12502
lthumb -17.0687 15.8822
rfemur -33.2899 -9.41159 8.4469
rtibia 29.4049
rfoot 18.4676 12.7818
rtoes -16.6928
lfemur 10.423 1.66495 -20.1603
ltibia 27.8692
lfoot -24.4992 -0.777316
ltoes -18.6467
225
root 1.06902 18.3594 -2.19736 580.919 93.8022 583.894
lowerback -1.03595 -1.01797 -4.9555
upperback 14.8414 0.344767 -2.68429
thorax 17.3101 0.0929569 -0.150545
lowerneck 4.50962 -3.35739 6.3276
upperneck 2.05084 -4.0327 6.91349
head -0.0893206 -1.93643 1.14147
rclavicle 1.74931e-014 2.3059e-014
rhumerus -27.6904 -23.9578 -80.5971
rradius 36.7061
rwrist 7.86746
rhand -10.7913 19.1367
rfingers 7.12502
rthumb 15.2215 -10.2833
lclavicle 1.74931e-014 2.3059e-014
lhumerus -2.01103 -3.06795 77.4503
lradius 52.725
lwrist -8.54965
lhand -43.8321 -13.1816
lfingers 7.12502
lthumb -16.6596 16.1234
rfemur -33.1307 -9.12809 8.24785
rtibia 29.7995
rfoot 17.3151 12.9642
rtoes -16.0436
lfemur 10.8956 1.59402 -20.0948
ltibia 27.316
lfoot -24.2507 -1.00951
ltoes -18.9283
226
root 1.1774 18.3543 -2.15552 584.352 93.7458 587.178
lowerback -1.13348 -1.07066 -4.72011
upperback 14.769 0.232619 -2.63691
thorax 17.2748 0.06454 -0.244004
lowerneck 4.3303 -3.08277 6.30016
upperneck 1.96976 -3.68566 6.65498
head -0.0911264 -1.76558 1.05774
rclavicle -9.54166e-015 -7.15625e-015
rhumerus -27.766 -23.8999 -80.5569
rradius 36.6051
rwrist 7.80907
rhand -10.7985 19.0539
rfingers 7.12502
rthumb 15.2146 -10.3667
lclavicle -9.54166e-015 -7.15625e-015
lhumerus -2.18162 -2.88103 77.454
lradius 51.835
lwrist -8.83767
lhand -43.3352 -13.0377
lfingers 7.12502
lthumb -16.1812 16.307
rfemur -33.001 -8.94119 8.09594
rtibia 30.1959
rfoot 16.1323 13.1578
rtoes -15.5535
lfemur 11.3578 1.48719 -20.0284
ltibia 26.7799
lfoot -24.0132 -1.28536
ltoes -19.0936
227
root 1.28652 18.3513 -2.11232 587.641 93.6835 590.339
lowerback -1.19837 -1.16025 -4.47452
upperback 14.6986 0.0645646 -2.58018
thorax 17.2213 0.0102373 -0.341328
lowerneck 4.13419 -2.76261 6.22847
upperneck 1.92878 -3.28571 6.34338
head -0.0773019 -1.56692 0.964034
rclavicle -3.65764e-014 -3.18055e-014
rhumerus -27.819 -23.8441 -80.542
rradius 36.4752
rwrist 7.89699
rhand -10.8104 19.0192
rfingers 7.12502
rthumb 15.2032 -10.4023
lclavicle -3.65764e-014 -3.18055e-014
lhumerus -2.41431 -2.61124 77.4185
lradius 50.9281
lwrist -9.11856
lhand -42.7502 -12.8555
lfingers 7.12502
lthumb -15.6178 16.5341
rfemur -32.8522 -8.72859 7.97485
rtibia 30.6093
rfoot 14.8583 13.3325
rtoes -15.1875
lfemur 11.8324 1.41304 -19.9171
ltibia 26.2578
lfoot -23.7603 -1.53771
ltoes -19.6161
228
root 1.39597 18.3476 -2.06905 591.018 93.6333 593.567
lowerback -1.27919 -1.24004 -4.21512
upperback 14.6348 -0.0923755 -2.50444
thorax 17.1857 -0.039152 -0.423564
lowerneck 3.91413 -2.44046 6.18075
upperneck 1.85132 -2.88281 5.95324
head -0.0710917 -1.36853 0.843258
rclavicle 1.63003e-014 6.36111e-015
rhumerus -27.8444 -23.7392 -80.4872
rradius 36.3525
rwrist 7.86612
rhand -10.8026 18.9734
rfingers 7.12502
rthumb 15.2107 -10.4475
lclavicle 1.63003e-014 6.36111e-015
lhumerus -2.60645 -2.36351 77.4352
lradius 49.9771
lwrist -9.42688
lhand -42.0998 -12.7656
lfingers 7.12502
lthumb -14.9913 16.6718
rfemur -32.7642 -8.69654 7.92275
rtibia 31.0397
rfoot 13.6433 13.6379
rtoes -14.9839
lfemur 12.2822 1.31834 -19.8126
ltibia 25.7549
lfoot -23.5209 -1.76705
ltoes -20.012
229
root 1.50536 18.3452 -2.02434 594.819 93.6056 597.239
lowerback -1.34731 -1.32674 -3.96888
upperback 14.5991 -0.250516 -2.44613
thorax 17.179 -0.0878695 -0.519182
lowerneck 3.67369 -2.09016 6.16957
upperneck 1.70315 -2.43863 5.53038
head -0.0824758 -1.15238 0.707662
rclavicle 2.18663e-014 4.77083e-015
rhumerus -27.7978 -23.7086 -80.4759
rradius 36.189
rwrist 7.89583
rhand -10.8476 18.9544
rfingers 7.12502
rthumb 15.1673 -10.4697
lclavicle 2.18663e-014 4.77083e-015
lhumerus -2.75115 -2.16523 77.3921
lradius 49.0219
lwrist -9.69611
lhand -41.4097 -12.5271
lfingers 7.12502
lthumb -14.3264 16.9586
rfemur -32.665 -8.72006 7.86845
rtibia 31.4868
rfoot 12.4283 13.9448
rtoes -14.8599
lfemur 12.7385 1.2134 -19.7173
ltibia 25.2615
lfoot -23.2219 -2.03514
ltoes -20.4376
230
root 1.61567 18.3459 -1.9795 597.646 93.581 599.939
lowerback -1.37904 -1.38446 -3.65198
upperback 14.5363 -0.381932 -2.3919
thorax 17.1083 -0.114688 -0.652992
lowerneck 3.53653 -1.743 6.21135
upperneck 1.52496 -1.98507 5.069
head -0.118741 -0.933627 0.55429
rclavicle 1.23246e-014 2.82274e-014
rhumerus -27.8341 -23.7236 -80.4349
rradius 36.0494
rwrist 7.92503
rhand -10.8311 18.9091
rfingers 7.12502
rthumb 15.1832 -10.5139
lclavicle 1.23246e-014 2.82274e-014
lhumerus -2.94095 -2.01408 77.3438
lradius 48.0124
lwrist -9.97452
lhand -40.6046 -12.4338
lfingers 7.12502
lthumb -13.5506 17.1052
rfemur -32.5864 -8.73353 7.87909
rtibia 31.9525
rfoot 11.2121 14.2768
rtoes -14.8332
lfemur 13.201 1.13542 -19.5846
ltibia 24.7651
lfoot -22.9257 -2.25292
ltoes -20.8867
